<?xml version="1.0" encoding="UTF-8" standalone="no"?>
<svg
   height="16"
   viewBox="0 0 16 16"
   width="16"
   version="1.1"
   id="svg1"
   sodipodi:docname="BlendData3D.svg"
   inkscape:version="1.3.2 (091e20e, 2023-11-25, custom)"
   xmlns:inkscape="http://www.inkscape.org/namespaces/inkscape"
   xmlns:sodipodi="http://sodipodi.sourceforge.net/DTD/sodipodi-0.dtd"
   xmlns="http://www.w3.org/2000/svg"
   xmlns:svg="http://www.w3.org/2000/svg">
  <sodipodi:namedview
     id="namedview1"
     pagecolor="#ffffff"
     bordercolor="#000000"
     borderopacity="0.25"
     inkscape:showpageshadow="2"
     inkscape:pageopacity="0.0"
     inkscape:pagecheckerboard="0"
     inkscape:deskcolor="#d1d1d1"
     inkscape:zoom="51.9375"
     inkscape:cx="8"
     inkscape:cy="8.1155235"
     inkscape:window-width="1920"
     inkscape:window-height="1027"
     inkscape:window-x="1912"
     inkscape:window-y="-8"
     inkscape:window-maximized="1"
     inkscape:current-layer="svg1" />
  <defs
     id="defs1" />
  <g
     id="g25"
     transform="translate(-1.0589651,-1.2322503)"
     style="fill:#e6085c;fill-opacity:1">
    <g
       id="g1"
       style="fill:#e6085c;fill-opacity:1">
      <path
         id="path2"
         style="fill:#e6085c;fill-opacity:1;stroke:#000000;stroke-width:0;stroke-miterlimit:4;stroke-dasharray:none;stroke-opacity:1"
         d="M 9.8027344,1.0664062 C 9.2042295,1.0679414 8.7667436,1.1728292 8.2089844,1.4433594 7.0710369,1.995298 6.3522012,3.0357143 6.1757812,4.390625 6.1680877,4.4497124 6.1610073,4.4483389 6.03125,4.3398438 5.6910485,4.0553879 5.2670839,3.8193833 4.8378906,3.6757812 4.4393413,3.5424323 4.1111251,3.4912642 3.6621094,3.4921875 3.0579974,3.4934299 2.5709592,3.6131072 2.015625,3.8964844 1.0360921,4.3963227 0.34052944,5.3151387 0.10546875,6.4199219 c -0.08390376,0.394347 -0.08390376,1.0333873 0,1.4277343 0.23496686,1.1043424 0.92227005,2.0148512 1.90625005,2.5214848 0.1587201,0.08172 0.3344649,0.163755 0.390625,0.18164 l 0.1035156,0.03125 v 1.367188 c 5.132e-4,1.482883 0.00985,1.593757 0.1503906,1.871093 0.1436141,0.283409 0.4454278,0.518935 0.78125,0.609376 0.1193278,0.03218 0.7596097,0.03981 3.9277344,0.04101 4.1287246,0.0015 3.9721946,0.0074 4.2656246,-0.152344 0.188134,-0.102395 0.418204,-0.356171 0.521485,-0.574218 l 0.08789,-0.183594 0.01367,-0.769531 0.01367,-0.769532 1.816406,1.210938 c 0.999598,0.666475 1.824532,1.21289 1.832032,1.21289 0.0075,0 0.01367,-1.63541 0.01367,-3.634765 V 7.1738281 L 14.128906,8.375 c -0.989876,0.6600318 -1.81688,1.2067838 -1.83789,1.2148438 -0.03239,0.012422 -0.03711,-0.1495848 -0.03711,-1.0664063 V 7.4414062 L 12.464844,7.21875 c 0.47548,-0.502729 0.789285,-1.1055379 0.935547,-1.7929688 0.0839,-0.394347 0.0839,-1.0353404 0,-1.4296874 C 13.162102,2.8761408 12.462793,1.9645404 11.455078,1.4570312 10.900795,1.1778808 10.428509,1.0648063 9.8027344,1.0664062 Z M 4.8378906,5.5 H 9.7871094 C 10.631866,5.5 11.3125,6.1786815 11.3125,7.0234375 V 11.974609 C 11.3125,12.819366 10.631866,13.5 9.7871094,13.5 H 4.8378906 C 3.9931346,13.5 3.3125,12.819366 3.3125,11.974609 V 7.0234375 C 3.3125,6.1786815 3.9931346,5.5 4.8378906,5.5 Z"
         transform="translate(1.0589651,1.2322503)" />
    </g>
  </g>
  <rect
     style="fill:#e6085c;stroke:#2b5aea;stroke-width:0;fill-opacity:1"
     id="rect1"
     width="6"
     height="0.5"
     x="4.3000002"
     y="6.3000002"
     ry="0.25" />
  <rect
     style="fill:#e6085c;stroke:#2b5aea;stroke-width:0;fill-opacity:1"
     id="rect1-5"
     width="6"
     height="0.5"
     x="4.3000002"
     y="7.3000002"
     ry="0.25" />
  <rect
     style="fill:#e6085c;stroke:#2b5aea;stroke-width:0;fill-opacity:1"
     id="rect1-5-3"
     width="6"
     height="0.5"
     x="4.3000002"
     y="8.3000002"
     ry="0.25" />
  <rect
     style="fill:#e6085c;stroke:#2b5aea;stroke-width:0;fill-opacity:1"
     id="rect1-3"
     width="6"
     height="0.5"
     x="4.3000002"
     y="9.3000002"
     ry="0.25" />
  <rect
     style="fill:#e6085c;stroke:#2b5aea;stroke-width:0;fill-opacity:1"
     id="rect1-5-6"
     width="6"
     height="0.5"
     x="4.3000002"
     y="10.3"
     ry="0.25" />
  <rect
     style="fill:#e6085c;stroke:#2b5aea;stroke-width:0;fill-opacity:1"
     id="rect1-5-3-7"
     width="6"
     height="0.5"
     x="4.3000002"
     y="11.3"
     ry="0.25" />
  <rect
     style="fill:#e6085c;stroke:#2b5aea;stroke-width:0;fill-opacity:1"
     id="rect1-5-3-7-4"
     width="6"
     height="0.5"
     x="4.3000002"
     y="12.3"
     ry="0.25" />
</svg>
