<?xml version="1.0" encoding="UTF-8" standalone="no"?>
<svg
   height="16"
   viewBox="0 0 16 16"
   width="16"
   version="1.1"
   id="svg1"
   sodipodi:docname="CamTarget2D.svg"
   inkscape:version="1.3.2 (091e20e, 2023-11-25, custom)"
   inkscape:export-filename="CamTarget2D.svg"
   inkscape:export-xdpi="96"
   inkscape:export-ydpi="96"
   xmlns:inkscape="http://www.inkscape.org/namespaces/inkscape"
   xmlns:sodipodi="http://sodipodi.sourceforge.net/DTD/sodipodi-0.dtd"
   xmlns="http://www.w3.org/2000/svg"
   xmlns:svg="http://www.w3.org/2000/svg">
  <sodipodi:namedview
     id="namedview1"
     pagecolor="#ffffff"
     bordercolor="#000000"
     borderopacity="0.25"
     inkscape:showpageshadow="2"
     inkscape:pageopacity="0.0"
     inkscape:pagecheckerboard="0"
     inkscape:deskcolor="#d1d1d1"
     inkscape:zoom="36.725358"
     inkscape:cx="4.2613607"
     inkscape:cy="9.4348977"
     inkscape:window-width="1920"
     inkscape:window-height="1027"
     inkscape:window-x="1912"
     inkscape:window-y="-8"
     inkscape:window-maximized="1"
     inkscape:current-layer="svg1" />
  <defs
     id="defs1" />
  <path
     id="path1"
     style="fill:#2b5aea;stroke:#2b5aea;stroke-width:0;stroke-opacity:1;fill-opacity:1"
     d="M 8,2 A 6,6 0 0 0 2,8 6,6 0 0 0 8,14 6,6 0 0 0 14,8 6,6 0 0 0 8,2 Z M 8,2.75 A 5.25,5.25 0 0 1 13.25,8 5.25,5.25 0 0 1 8,13.25 5.25,5.25 0 0 1 2.75,8 5.25,5.25 0 0 1 8,2.75 Z" />
  <path
     id="path1-3"
     style="fill:#2b5aea;stroke:#2b5aea;stroke-width:0;stroke-opacity:1;fill-opacity:1"
     d="M 8,4 A 4,4 0 0 0 4,8 4,4 0 0 0 8,12 4,4 0 0 0 12,8 4,4 0 0 0 8,4 Z M 8,4.5 A 3.5,3.5 0 0 1 11.5,8 3.5,3.5 0 0 1 8,11.5 3.5,3.5 0 0 1 4.5,8 3.5,3.5 0 0 1 8,4.5 Z" />
  <path
     id="path1-9"
     style="fill:#2b5aea;stroke:#2b5aea;stroke-width:0;stroke-opacity:1;fill-opacity:1"
     d="M 8,0 A 8,8 0 0 0 0,8 8,8 0 0 0 8,16 8,8 0 0 0 16,8 8,8 0 0 0 8,0 Z M 8,1 A 7,7 0 0 1 15,8 7,7 0 0 1 8,15 7,7 0 0 1 1,8 7,7 0 0 1 8,1 Z" />
  <circle
     style="fill:#2b5aea;stroke:#2b5aea;stroke-width:0;stroke-opacity:1;fill-opacity:1"
     id="path2"
     cx="8.0500002"
     cy="8.0500002"
     r="2.3499999" />
</svg>
