<?xml version="1.0" encoding="UTF-8" standalone="no"?>
<svg
   height="16"
   viewBox="0 0 16 16"
   width="16"
   version="1.1"
   id="svg1"
   xmlns="http://www.w3.org/2000/svg"
   xmlns:svg="http://www.w3.org/2000/svg">
  <defs
     id="defs1" />
  <g
     id="g25"
     transform="translate(-1.0589651,-1.2322503)">
    <g
       id="g1">
      <path
         style="fill:#2b5aea;fill-opacity:1;stroke:#000000;stroke-width:0;stroke-miterlimit:4;stroke-dasharray:none;stroke-opacity:1"
         d="M 3.4380754,14.430313 C 3.1022529,14.339872 2.7991101,14.10349 2.6554959,13.820081 2.5149586,13.542744 2.5060671,13.431783 2.5055539,11.948898 L 2.5050811,10.582745 2.4029718,10.550228 C 2.3468117,10.532343 2.1710005,10.450847 2.0122802,10.369125 1.0282993,9.8624913 0.33990369,8.952699 0.1049366,7.8483555 0.02103276,7.4540081 0.02103276,6.8140623 0.1049366,6.4197149 0.33999753,5.3149306 1.0354226,4.3961918 2.0149565,3.896353 2.5702913,3.6129755 3.058207,3.4932026 3.6623196,3.4919602 4.1113358,3.4910369 4.4392925,3.5422776 4.8378422,3.6756267 5.2670359,3.8192289 5.6910532,4.0551337 6.031255,4.3395898 6.1610124,4.4480851 6.1677794,4.4505175 6.175473,4.39143 6.3518931,3.0365179 7.0702281,1.9943763 8.2081767,1.4424371 8.7659365,1.1719067 9.2039856,1.0688352 9.8024911,1.0673 10.428266,1.0657 10.901682,1.1770408 11.455966,1.4561915 c 1.007716,0.5075097 1.706463,1.4201756 1.944752,2.5401297 0.0839,0.3943474 0.0839,1.0342933 0,1.4286407 -0.146262,0.6874315 -0.461097,1.2900974 -0.936578,1.7928269 l -0.211026,0.2231188 v 1.0815957 c 0,0.9168224 0.0058,1.0793632 0.03819,1.066941 0.02101,-0.00806 0.84809,-0.554681 1.837967,-1.2147135 l 1.799778,-1.2000586 v 3.6351938 c 0,1.999357 -0.0062,3.635194 -0.01371,3.635194 -0.0075,0 -0.831561,-0.545298 -1.83116,-1.211774 l -1.817452,-1.211773 -0.01361,0.7693 -0.01361,0.7693 -0.08754,0.18482 c -0.103281,0.218048 -0.332566,0.470171 -0.5207,0.572566 -0.293431,0.159706 -0.137044,0.154111 -4.2657731,0.152596 -3.1681278,-0.0012 -3.8080796,-0.0076 -3.9274075,-0.03978 z"
         id="path2"
         transform="translate(1.0589651,1.2322503)" />
    </g>
  </g>
</svg>
